<svg width="512" height="512" viewBox="0 0 512 512" fill="none" xmlns="http://www.w3.org/2000/svg">
<g clip-path="url(#clip0_1_2)">
<rect width="512" height="512" rx="71" fill="url(#paint0_linear_1_2)"/>
<path d="M103.75 186.75C103.75 171.75 108.55 160.2 118.15 152.1C127.75 144 142.3 139.95 161.8 139.95V166.5C157.3 171.3 153.55 176.4 150.55 181.8L153.7 183.6C163.3 169.2 173.2 158.4 183.4 151.2C193.9 143.7 206.35 139.95 220.75 139.95C246.25 139.95 263.95 152.7 273.85 178.2C281.35 166.2 290.95 156.9 302.65 150.3C314.35 143.4 327.55 139.95 342.25 139.95C362.65 139.95 378.85 147.45 390.85 162.45C403.15 177.45 409.3 196.5 409.3 219.6V337.05C409.3 349.95 404.35 359.25 394.45 364.95C384.55 370.35 369.25 373.05 348.55 373.05V225C348.55 214.8 346.3 206.7 341.8 200.7C337.3 194.7 330.25 191.7 320.65 191.7C311.05 191.7 302.95 195.15 296.35 202.05C289.75 208.65 286.45 219.9 286.45 235.8V337.05C286.45 349.95 281.5 359.25 271.6 364.95C262 370.35 247 373.05 226.6 373.05V225C226.6 214.8 224.35 206.7 219.85 200.7C215.35 194.7 208.45 191.7 199.15 191.7C176.05 191.7 164.5 207.15 164.5 238.05V337.05C164.5 349.95 159.55 359.25 149.65 364.95C139.75 370.35 124.45 373.05 103.75 373.05V186.75Z" fill="#4E75FF"/>
<path d="M118.15 152.1L107.187 139.107L107.187 139.107L118.15 152.1ZM161.8 139.95H178.8V122.95H161.8V139.95ZM161.8 166.5L174.202 178.127L178.8 173.223V166.5H161.8ZM150.55 181.8L135.689 173.544L127.532 188.227L142.116 196.56L150.55 181.8ZM153.7 183.6L145.266 198.36L159.043 206.233L167.845 193.03L153.7 183.6ZM183.4 151.2L193.204 165.088L193.242 165.061L193.281 165.033L183.4 151.2ZM273.85 178.2L258.002 184.353L270.283 215.983L288.266 187.21L273.85 178.2ZM302.65 150.3L311.002 165.107L311.145 165.026L311.286 164.943L302.65 150.3ZM390.85 162.45L377.575 173.07L377.639 173.15L377.704 173.229L390.85 162.45ZM394.45 364.95L402.591 379.874L402.763 379.78L402.932 379.683L394.45 364.95ZM348.55 373.05H331.55V390.05H348.55V373.05ZM341.8 200.7L355.4 190.5L355.4 190.5L341.8 200.7ZM296.35 202.05L308.371 214.071L308.504 213.937L308.635 213.801L296.35 202.05ZM271.6 364.95L279.934 379.767L280.009 379.725L280.082 379.683L271.6 364.95ZM226.6 373.05H209.6V390.05H226.6V373.05ZM219.85 200.7L233.45 190.5L233.45 190.5L219.85 200.7ZM149.65 364.95L157.79 379.874L157.963 379.78L158.132 379.683L149.65 364.95ZM103.75 373.05H86.75V390.05H103.75V373.05ZM120.75 186.75C120.75 175.686 124.091 169.33 129.113 165.093L107.187 139.107C93.0087 151.07 86.75 167.814 86.75 186.75H120.75ZM129.113 165.093C134.348 160.675 144.204 156.95 161.8 156.95V122.95C140.396 122.95 121.152 127.325 107.187 139.107L129.113 165.093ZM144.8 139.95V166.5H178.8V139.95H144.8ZM149.398 154.873C144.005 160.626 139.41 166.847 135.689 173.544L165.411 190.056C167.69 185.953 170.595 181.974 174.202 178.127L149.398 154.873ZM142.116 196.56L145.266 198.36L162.134 168.84L158.984 167.04L142.116 196.56ZM167.845 193.03C176.701 179.746 185.234 170.714 193.204 165.088L173.596 137.312C161.166 146.086 149.899 158.654 139.555 174.17L167.845 193.03ZM193.281 165.033C200.567 159.829 209.464 156.95 220.75 156.95V122.95C203.236 122.95 187.233 127.571 173.519 137.367L193.281 165.033ZM220.75 156.95C230.555 156.95 237.724 159.352 243.214 163.306C248.792 167.324 253.941 173.891 258.002 184.353L289.698 172.047C283.859 157.009 275.208 144.451 263.086 135.719C250.876 126.923 236.445 122.95 220.75 122.95V156.95ZM288.266 187.21C294.344 177.485 301.909 170.236 311.002 165.107L294.298 135.493C279.991 143.564 268.356 154.915 259.434 169.19L288.266 187.21ZM311.286 164.943C320.156 159.712 330.329 156.95 342.25 156.95V122.95C324.771 122.95 308.544 127.088 294.014 135.657L311.286 164.943ZM342.25 156.95C357.854 156.95 369.025 162.382 377.575 173.07L404.125 151.83C388.675 132.518 367.446 122.95 342.25 122.95V156.95ZM377.704 173.229C387.058 184.636 392.3 199.649 392.3 219.6H426.3C426.3 193.351 419.242 170.264 403.996 151.671L377.704 173.229ZM392.3 219.6V337.05H426.3V219.6H392.3ZM392.3 337.05C392.3 344.815 389.826 347.996 385.968 350.217L402.932 379.683C418.874 370.504 426.3 355.085 426.3 337.05H392.3ZM386.31 350.026C380.219 353.348 368.416 356.05 348.55 356.05V390.05C370.084 390.05 388.881 387.352 402.591 379.874L386.31 350.026ZM365.55 373.05V225H331.55V373.05H365.55ZM365.55 225C365.55 212.428 362.779 200.339 355.4 190.5L328.2 210.9C329.821 213.061 331.55 217.172 331.55 225H365.55ZM355.4 190.5C346.815 179.053 333.952 174.7 320.65 174.7V208.7C326.548 208.7 327.785 210.347 328.2 210.9L355.4 190.5ZM320.65 174.7C306.439 174.7 293.892 180.026 284.065 190.299L308.635 213.801C312.008 210.274 315.661 208.7 320.65 208.7V174.7ZM284.329 190.029C272.923 201.435 269.45 218.362 269.45 235.8H303.45C303.45 221.438 306.577 215.865 308.371 214.071L284.329 190.029ZM269.45 235.8V337.05H303.45V235.8H269.45ZM269.45 337.05C269.45 344.815 266.976 347.996 263.118 350.217L280.082 379.683C296.024 370.504 303.45 355.085 303.45 337.05H269.45ZM263.266 350.133C257.566 353.339 246.181 356.05 226.6 356.05V390.05C247.819 390.05 266.434 387.361 279.934 379.767L263.266 350.133ZM243.6 373.05V225H209.6V373.05H243.6ZM243.6 225C243.6 212.428 240.829 200.339 233.45 190.5L206.25 210.9C207.871 213.061 209.6 217.172 209.6 225H243.6ZM233.45 190.5C224.97 179.193 212.373 174.7 199.15 174.7V208.7C204.527 208.7 205.73 210.207 206.25 210.9L233.45 190.5ZM199.15 174.7C183.431 174.7 169.183 180.218 159.547 193.109C150.605 205.07 147.5 220.974 147.5 238.05H181.5C181.5 224.226 184.17 216.955 186.778 213.466C188.692 210.907 191.769 208.7 199.15 208.7V174.7ZM147.5 238.05V337.05H181.5V238.05H147.5ZM147.5 337.05C147.5 344.815 145.026 347.996 141.168 350.217L158.132 379.683C174.074 370.504 181.5 355.085 181.5 337.05H147.5ZM141.51 350.026C135.419 353.348 123.616 356.05 103.75 356.05V390.05C125.284 390.05 144.081 387.352 157.79 379.874L141.51 350.026ZM120.75 373.05V186.75H86.75V373.05H120.75Z" fill="white"/>
</g>
<defs>
<linearGradient id="paint0_linear_1_2" x1="-93.9096" y1="-140.864" x2="256" y2="512" gradientUnits="userSpaceOnUse">
<stop stop-color="#5855FF"/>
<stop offset="1" stop-color="#FFB47D"/>
</linearGradient>
<clipPath id="clip0_1_2">
<rect width="512" height="512" fill="white"/>
</clipPath>
</defs>
</svg>
