<?xml version="1.0" standalone="no"?>
<!DOCTYPE svg PUBLIC "-//W3C//DTD SVG 20010904//EN"
 "http://www.w3.org/TR/2001/REC-SVG-20010904/DTD/svg10.dtd">
<svg version="1.0" xmlns="http://www.w3.org/2000/svg"
 width="700.000000pt" height="700.000000pt" viewBox="0 0 700.000000 700.000000"
 preserveAspectRatio="xMidYMid meet">
<metadata>
Created by potrace 1.14, written by Peter Selinger 2001-2017
</metadata>
<g transform="translate(0.000000,700.000000) scale(0.100000,-0.100000)"
fill="#000000" stroke="none">
<path d="M825 6993 c-172 -36 -272 -74 -386 -148 -196 -127 -344 -332 -415
-575 -18 -63 -19 -150 -22 -2735 -2 -2394 -1 -2678 13 -2748 74 -365 325 -639
692 -754 l88 -28 2655 -3 c1985 -2 2674 0 2730 9 408 63 727 374 805 781 13
70 15 400 15 2715 0 2901 5 2686 -61 2868 -90 250 -316 474 -568 565 -175 64
20 60 -2879 59 -1456 -1 -2656 -3 -2667 -6z m1615 -1748 c0 -41 2 -75 5 -75 3
0 31 13 63 29 157 79 307 112 512 112 196 0 318 -28 468 -107 96 -50 194 -125
251 -191 l39 -46 49 40 c215 179 468 281 743 302 480 36 839 -157 1082 -579
70 -121 135 -327 158 -496 7 -53 11 -408 13 -1015 2 -1045 6 -991 -70 -1149
-49 -104 -167 -220 -274 -272 -175 -85 -354 -117 -696 -125 l-242 -6 -3 1179
-3 1179 -25 50 c-29 58 -56 75 -123 75 -95 0 -174 -52 -209 -137 l-23 -58 -6
-840 c-6 -934 -3 -893 -76 -1045 -49 -103 -167 -220 -273 -272 -189 -92 -402
-128 -762 -128 l-168 0 -2 1183 -3 1182 -23 46 c-26 53 -54 69 -120 69 -115 0
-176 -45 -214 -158 -22 -67 -23 -70 -28 -897 -7 -929 -4 -887 -80 -1034 -143
-275 -451 -391 -1038 -391 l-173 0 3 1473 3 1472 22 79 c91 318 316 517 672
592 83 18 251 30 434 32 l117 2 0 -75z"/>
<path d="M2904 4851 c-82 -13 -178 -49 -243 -91 -57 -37 -211 -175 -211 -189
0 -4 33 1 73 12 53 14 105 20 197 20 107 0 136 -4 202 -25 191 -63 318 -207
380 -433 22 -80 22 -85 26 -1042 1 -530 7 -963 11 -963 36 0 183 36 225 54 69
31 103 68 116 128 6 32 10 320 10 808 0 698 5 860 27 935 5 16 3 18 -9 8 -12
-10 -27 21 -98 205 -127 331 -183 426 -297 501 -93 62 -274 93 -409 72z"/>
<path d="M4580 4854 c-156 -24 -251 -58 -369 -134 -74 -47 -215 -182 -240
-229 -15 -28 -10 -27 45 11 71 48 182 87 287 100 264 33 503 -85 609 -302 77
-157 72 -80 75 -1178 l4 -984 52 7 c83 10 205 45 239 69 42 28 67 65 78 112
14 56 13 1692 -1 1810 -43 387 -251 657 -546 709 -73 13 -176 17 -233 9z"/>
<path d="M1930 4825 c-125 -33 -198 -89 -244 -184 l-31 -66 -3 -1218 -2 -1219
52 7 c149 21 259 67 292 125 21 34 21 51 26 850 6 875 7 880 60 1036 11 31 20
60 20 64 0 4 -78 52 -172 105 -95 54 -175 99 -177 101 -6 5 139 255 186 322
56 78 54 93 -7 77z"/>
</g>
</svg>
